<svg xmlns="http://www.w3.org/2000/svg" viewBox="0 0 218.45 167.03"><g id="Layer_2" data-name="Layer 2"><g id="Layer_1-2" data-name="Layer 1"><path d="M209.09,24.75l-8.78,29.93L218.45,60l-8.71,29.73,7.73,2.68c-.83,2.69-1.63,5.31-2.66,8.68L0,36.72l2.44-8.33,5.28,1.34c3-9.9,5.86-19.55,8.91-29.73L61.39,13.49c-2.92,10-5.79,19.79-8.78,30l76.42,23c3-10,6-19.8,9.05-29.89l17.74,4.95c3-10,6-19.82,9-29.88ZM16.44,32.28l26.88,7.93C45.6,33,47.67,26.43,49.87,19.49l-26.79-8Zm190.15,34-26.43-7.89c-2.28,7.21-4.38,13.88-6.56,20.8l26.78,7.92C202.49,80,204.43,73.49,206.59,66.23ZM164.63,44l26.89,7.88,6-20.61-26.78-8C168.69,30.3,166.73,36.88,164.63,44ZM137.9,68.48l26.34,8,6.6-20.76-26.86-8C141.93,54.72,140,61.19,137.9,68.48Z"/><path d="M152.83,123.17c-.12,24.9-19.7,44.12-44.69,43.86A43.59,43.59,0,0,1,65,123.13c0-24.5,19.95-44.33,44.17-44A44,44,0,0,1,152.83,123.17Zm-9.25.59c.11-19.09-15.39-34.89-34.28-34.94a34.85,34.85,0,1,0-.33,69.69A35,35,0,0,0,143.58,123.76Z"/></g></g></svg>